# xmcd
#
# Track frame offsets:
#	150
#	18484
#	43761
#	75989
#	107606
#	124525
#	156467
#	173382
#	195885
#	221928
#
# Disc length: 3458 seconds
#
# Revision: 1
# Processed by: cddbd v1.5.2PL0 Copyright (c) Steve Scherf et al.
# Submitted via: audiograbber 1.83.01
#
DISCID=760d800a
DTITLE=Grateful Dead - 74-07-25 International Amphitheatre, Chicago IL
DYEAR=1900
DGENRE=
TTITLE0=Me and My Uncle
TTITLE1=Loose Lucy
TTITLE2=Black Throated Wind
TTITLE3=Loser
TTITLE4=BIODTL
TTITLE5=Sugaree
TTITLE6=Mexicali Blues
TTITLE7=Brown Eyed Women
TTITLE8=El Paso
TTITLE9=Row Jimmy
EXTD=
EXTT0=
EXTT1=
EXTT2=
EXTT3=
EXTT4=
EXTT5=
EXTT6=
EXTT7=
EXTT8=
EXTT9=
PLAYORDER=
